HIERARCHY
ROOT pelvis
{
  OFFSET 0 100 0
  CHANNELS 6 Xposition Yposition Zposition Zrotation Xrotation Yrotation
  JOINT pelvis_right_femur
  {
    OFFSET -10.78128 -3.44521 -0.5502486
    CHANNELS 3 Zrotation Xrotation Yrotation
    JOINT right_femur_tibia
    {
      OFFSET -0.8047443 -44.0398 -0.1307829
      CHANNELS 3 Zrotation Xrotation Yrotation
      JOINT right_tibia_foot
      {
        OFFSET 3.006224 -47.83518 -5
        CHANNELS 3 Zrotation Xrotation Yrotation
        End Site
        {
          OFFSET 0 -5 15
        }
      }
    }
  }
  JOINT pelvis_left_femur
  {
    OFFSET 10.78128 -3.44521 -0.5502486
    CHANNELS 3 Zrotation Xrotation Yrotation
    JOINT left_femur_tibia
    {
      OFFSET 0.8047443 -44.0398 -0.1307829
      CHANNELS 3 Zrotation Xrotation Yrotation
      JOINT left_tibia_foot
      {
        OFFSET -4.370144 -48.10324 -4.275266
        CHANNELS 3 Zrotation Xrotation Yrotation
        End Site
        {
          OFFSET 0 -5 15
        }
      }
    }
  }
  JOINT pelvis_spine1
  {
    OFFSET 0 6.468898 -3.129235
    CHANNELS 3 Zrotation Xrotation Yrotation
    JOINT spine1
    {
      OFFSET 0 23.15396 4.99043
      CHANNELS 3 Zrotation Xrotation Yrotation
      JOINT spine2
      {
        OFFSET 0 20.79997 -5.064912
        CHANNELS 3 Zrotation Xrotation Yrotation
        JOINT neck
        {
          OFFSET 0 14.38658 9.616178
          CHANNELS 3 Zrotation Xrotation Yrotation
          End Site
          {
            OFFSET 0 20 0
          }
        }
      }
      JOINT right_manubrium
      {
        OFFSET -5.722621 16.35077 3.967754
        CHANNELS 3 Zrotation Xrotation Yrotation
        JOINT right_clavicle
        {
          OFFSET -13.16364 1.694482 -4.693211
          CHANNELS 3 Zrotation Xrotation Yrotation
          JOINT right_humerus
          {
            OFFSET -28.5034 -0.3100689 -2.792744
            CHANNELS 3 Zrotation Xrotation Yrotation
            JOINT right_radius
            {
              OFFSET -25.15693 0.02248979 -1.271978
              CHANNELS 3 Zrotation Xrotation Yrotation
              End Site
              {
                OFFSET -15 0 0
              }
            }
          }
        }
      }
      JOINT left_manubrium
      {
        OFFSET 5.722621 16.35077 3.967754
        CHANNELS 3 Zrotation Xrotation Yrotation
        JOINT left_clavicle
        {
          OFFSET 13.16364 1.694482 -4.693211
          CHANNELS 3 Zrotation Xrotation Yrotation
          JOINT left_humerus
          {
            OFFSET 29.39168 -1.063119 -2.237045
            CHANNELS 3 Zrotation Xrotation Yrotation
            JOINT left_radius
            {
              OFFSET 24.59957 -0.9528479 0.9047498
              CHANNELS 3 Zrotation Xrotation Yrotation
              End Site
              {
                OFFSET 15 -0 -0
              }
            }
          }
        }
      }
    }
  }
}
MOTION
Frames: 19
Frame Time: 0.0416666666667
0 103.5113 0 2.468268 0.7105119 0.08714316 3.146025 -15.06229 11.78609 -0 36.46613 -0 -4.079001 -17.92278 -3.739664 -8.865937 8.565788 -21.54148 -0 4.597043 -0 22.19059 -9.634613 29.62973 -1.6344 -1.733724 6.756812 1.873745 10.92535 -6.608585 2.010699 21.87144 4.279463 1.886494 -24.72707 8.342461 4.12177 -21.1691 10.50886 86.87832 36.99011 -17.50366 -0 0 14.88008 -8.243997 8.397898 4.455816 5.273371 -20.23881 -2.431182 -91.59139 22.58637 22.29661 0 0 -16.91544 14.65891 13.26839 -1.463382
0.3738441 103.428 1.592347 1.797769 1.630516 0.1348462 4.456424 -17.97555 12.58471 -0 37.27991 -0 -4.29565 -16.64706 -3.76174 -8.516459 8.411833 -21.24486 -0 5.054163 -0 22.33431 -10.19682 29.96955 -1.596058 -1.633297 6.459649 2.109998 10.84546 -6.838761 1.910056 21.66844 4.605693 2.106998 -25.11949 8.411745 4.176813 -20.70719 10.67474 87.10435 36.50435 -18.06874 -0 0 14.37732 -8.286393 8.416328 4.42455 5.273833 -20.34646 -2.400329 -91.49593 22.34045 21.81013 0 0 -16.92761 14.24683 13.13526 -1.360925
0.6593427 102.997 3.550564 1.449102 0.1043416 0.2657238 4.053921 -19.60364 7.278619 -0 33.10023 -0 -6.760262 -14.04333 -1.793847 -7.838953 10.35765 -20.77125 -0 6.018036 -0 17.87907 -13.85975 27.72871 -1.557907 -1.505713 6.379246 2.152419 10.80033 -6.854497 1.867022 21.58798 4.715602 2.205083 -25.21325 8.374368 4.145438 -20.53888 10.72303 87.05274 36.30656 -18.0212 -0 0 14.2086 -8.493424 8.448976 4.622687 5.234866 -20.32522 -2.410492 -91.34525 22.26 21.56095 0 0 -17.06288 13.94129 12.90071 -1.129392
0.8897955 102.4948 5.850908 0.8988095 -0.03956428 0.3448558 4.475442 -22.40633 5.048317 -0 30.56823 -0 -8.049124 -11.67095 -0.814635 -7.285037 11.22983 -20.01757 -0 6.971134 -0 15.65722 -15.99615 26.34901 -1.529444 -1.37258 6.434918 2.097003 10.79989 -6.767998 1.852592 21.58181 4.678264 2.20531 -25.14633 8.269484 4.019143 -20.58774 10.7261 86.91005 36.24021 -17.64333 -0 0 14.26516 -8.783534 8.427974 4.900403 5.148875 -20.23008 -2.448147 -91.14754 22.13309 21.47282 0 0 -17.16415 13.79796 12.60571 -1.023412
1.084925 101.8746 8.538722 0.5162118 -0.2111271 0.4308311 4.704697 -24.79543 2.873533 -0 27.58863 -0 -9.305018 -9.357018 0.1975982 -6.882748 11.91015 -18.9389 -0 8.268159 -0 14.54536 -17.34368 24.98284 -1.509366 -1.235262 6.564409 1.981316 10.81391 -6.616791 1.851846 21.61262 4.568305 2.159695 -24.97967 8.122547 3.849109 -20.75189 10.70524 86.66869 36.22518 -17.03329 -0 0 14.4783 -9.149959 8.386421 5.261593 5.042573 -20.08458 -2.486426 -90.93718 22.00763 21.48324 0 0 -17.23566 13.68568 12.27688 -0.9103206
1.255397 101.1994 11.65475 0.159704 -0.2247917 0.5323368 4.985387 -27.07282 1.112872 -0 24.67558 -0 -10.41085 -7.087346 1.09723 -6.54783 12.44186 -17.6884 -0 10.04927 -0 13.95805 -18.1934 23.64995 -1.499756 -1.097673 6.73827 1.830826 10.83013 -6.429703 1.854564 21.65708 4.417516 2.08485 -24.75285 7.946389 3.638615 -21.00216 10.67809 86.34818 36.20533 -16.24112 -0 0 14.83032 -9.591752 8.322323 5.69389 4.92616 -19.90036 -2.505546 -90.71575 21.84204 21.55989 0 0 -17.25057 13.58273 11.92186 -0.815942
1.405723 100.5221 15.25779 -0.1407255 -0.3152266 0.6557627 5.212949 -28.87032 -0.5922228 -0 21.72934 -0 -11.51558 -4.823365 1.976762 -6.256052 12.92927 -16.224 -0 12.62189 -0 13.55587 -18.54859 22.14098 -1.501389 -0.9608493 6.937293 1.658521 10.83822 -6.219575 1.855341 21.70203 4.24802 1.994649 -24.48555 7.748607 3.398482 -21.3133 10.65264 85.94736 36.14485 -15.29126 -0 0 15.30946 -10.11064 8.240725 6.200588 4.806493 -19.68114 -2.495163 -90.49218 21.63941 21.68641 0 0 -17.20155 13.44957 11.54577 -0.7103941
1.538415 99.94016 19.40172 -0.429588 -0.5155741 0.788463 5.486281 -30.04001 -2.08226 -0 19.04578 -0 -12.57312 -2.581269 2.746626 -5.953253 13.33118 -14.5736 -0 16.28431 -0 13.03208 -18.33607 20.37042 -1.515075 -0.8251037 7.150611 1.47348 10.83423 -5.995378 1.850705 21.73948 4.070747 1.894742 -24.19065 7.532914 3.129947 -21.67491 10.63542 85.47373 36.01181 -14.20037 -0 0 15.91271 -10.70737 8.136906 6.781033 4.683605 -19.42616 -2.451492 -90.27055 21.39104 21.85608 0 0 -17.07573 13.26457 11.14755 -0.5867965
1.654171 99.574 24.12079 -0.7369177 -0.8978675 0.89313 5.893832 -30.3441 -3.194993 -0 16.8931 -0 -13.52605 -0.3908486 3.315064 -5.580329 13.52668 -12.77168 -0 21.3471 -0 12.146 -17.39484 18.28985 -1.541283 -0.6910576 7.370657 1.281627 10.81654 -5.762587 1.838826 21.76493 3.893212 1.78925 -23.87569 7.30216 2.835877 -22.07844 10.63049 84.9359 35.77909 -12.98532 -0 0 16.63792 -11.37967 8.005808 7.433407 4.556158 -19.13346 -2.37486 -90.05856 21.09888 22.06835 0 0 -16.86289 13.00526 10.72698 -0.4282051
1.753008 99.55411 29.39947 -1.092622 -1.491935 0.9037971 6.520745 -29.58448 -3.699648 -0 15.53393 -0 -14.27837 1.65685 3.567697 -5.071397 13.27326 -10.92504 -0 27.98007 -0 10.75068 -15.57656 15.97986 -1.580071 -0.5599191 7.592012 1.087542 10.7861 -5.52566 1.819022 21.77607 3.720133 1.680487 -23.54612 7.059177 2.518342 -22.51768 10.64063 84.34922 35.42207 -11.66835 -0 0 17.48241 -12.12093 7.840422 8.150905 4.421629 -18.80106 -2.268949 -89.86516 20.7672 22.32597 0 0 -16.55336 12.65383 10.28409 -0.2199424
1.833714 99.98118 35.14319 -1.488707 -2.307272 0.7340137 7.330352 -27.60216 -3.50409 -0 15.0134 -0 -14.76515 3.378486 3.436151 -4.385914 12.22873 -9.195357 -0 36.05455 -0 8.877358 -12.86844 13.67962 -1.630744 -0.4335835 7.810321 0.8947096 10.74547 -5.288384 1.791653 21.77222 3.555308 1.570543 -23.2061 6.807686 2.180672 -22.98564 10.66687 83.73482 34.92099 -10.27977 -0 0 18.43959 -12.91965 7.634783 8.921457 4.278101 -18.42871 -2.140019 -89.70122 20.40598 22.63254 0 0 -16.14146 12.19596 9.820529 0.05414265
1.891805 100.8817 41.16553 -1.853136 -3.314177 0.3076105 8.113165 -24.34473 -2.770756 -0 15.02916 -0 -15.00518 4.479992 2.945084 -3.552289 10.0367 -7.75229 -0 44.95962 -0 6.766639 -9.557224 11.75019 -1.691681 -0.3144022 8.021937 0.7058874 10.69847 -5.054333 1.758005 21.75405 3.401917 1.461393 -22.85943 6.552535 1.826912 -23.47417 10.7085 83.1196 34.26262 -8.858017 -0 0 19.49735 -13.75945 7.38491 9.727328 4.124786 -18.01863 -1.9964 -89.57796 20.02916 22.99039 0 0 -15.62691 11.62324 9.339148 0.4082546
1.91643 102.1786 47.21797 -2.052428 -4.439169 -0.3927826 8.566486 -19.92584 -1.889934 -0 14.97286 -0 -15.11237 4.652352 2.226698 -2.683265 6.49438 -6.673536 -0 53.54389 -0 4.802283 -6.263086 10.52055 -1.760287 -0.2048541 8.223666 0.5231894 10.64948 -4.82686 1.720127 21.72337 3.262897 1.355173 -22.50982 6.299696 1.461827 -23.9733 10.76292 82.53352 33.44254 -7.44738 -0 0 20.637 -14.62022 7.090317 10.54626 3.962641 -17.57613 -1.847641 -89.50572 19.65404 23.39879 0 0 -15.01645 10.93421 8.843904 0.8535844
1.89071 103.6979 53.0651 -1.961558 -5.555702 -1.29037 8.502807 -14.66367 -1.243968 -0 14.25574 -0 -15.21036 3.775143 1.466348 -1.896853 1.712005 -5.878814 -0 60.25326 -0 3.354621 -3.698844 10.11174 -1.833193 -0.107161 8.412648 0.3482229 10.60272 -4.609035 1.6806 21.68294 3.140908 1.254041 -22.16119 6.05592 1.090342 -24.47157 10.82579 82.0063 32.46614 -6.093693 -0 0 21.83369 -15.47982 6.754591 11.35348 3.794443 -17.10933 -1.703499 -89.4926 19.29954 23.85288 0 0 -14.3239 10.13512 8.339426 1.396524
1.801041 105.2035 58.56858 -1.571238 -6.486503 -2.234063 8.002307 -9.046635 -0.9657673 -0 12.69706 -0 -15.30263 2.048089 0.8172845 -1.172814 -3.870665 -5.167192 -0 63.45443 -0 2.61062 -2.257186 10.38657 -1.906639 -0.0229621 8.586267 0.1822046 10.56147 -4.403454 1.642249 21.63627 3.038226 1.159974 -21.81752 5.828206 0.7170648 -24.95665 10.89144 81.5634 31.34838 -4.839186 -0 0 23.05804 -16.31627 6.385342 12.12434 3.624561 -16.62847 -1.572815 -89.5435 18.98451 24.34357 0 0 -13.56899 9.239405 7.830763 2.037895
1.655068 106.4366 63.7274 -1.0397 -7.045144 -3.073762 7.362271 -3.622247 -0.9112426 -0 10.62734 -0 -15.22788 -0.1524872 0.3459919 -0.3059815 -9.621314 -4.335395 -0 61.88663 -0 2.488611 -1.79118 11.05672 -1.976963 0.04689717 8.742114 0.02609659 10.52747 -4.212052 1.60784 21.58739 2.956552 1.074475 -21.4828 5.623208 0.3458056 -25.4163 10.95341 81.22302 30.11194 -3.71783 -0 0 24.27879 -17.10984 5.993301 12.83702 3.458366 -16.14467 -1.462547 -89.65974 18.72603 24.85836 0 0 -12.77506 8.266157 7.323231 2.772891
1.497567 107.1602 68.65496 -0.6278644 -7.131466 -3.731946 6.903344 1.157185 -0.8243257 -0 8.663355 -0 -14.75819 -2.582512 0.01534705 0.9399668 -14.86452 -3.291763 -0 55.20971 -0 2.71491 -1.78369 11.83972 -2.041052 0.1024362 8.877954 -0.1192592 10.50053 -4.035965 1.579833 21.5406 2.896872 0.9983673 -21.16084 5.446725 -0.02068737 -25.83937 11.00509 80.99449 28.78454 -2.752397 -0 0 25.46558 -17.8445 5.590924 13.47455 3.3015 -15.66861 -1.377154 -89.83938 18.53828 25.38279 0 0 -11.96616 7.237894 6.822403 3.591878
1.406333 107.2263 73.51903 -0.5570804 -6.82253 -4.220585 6.787654 5.063584 -0.5216586 -0 7.425281 -0 -13.77507 -5.261632 -0.2904138 2.581636 -18.97524 -2.12376 -0 44.46183 -0 3.008496 -1.716918 12.56837 -2.096644 0.1444957 8.991692 -0.2530076 10.47856 -3.8755 1.560209 21.50032 2.859405 0.9317081 -20.85513 5.303368 -0.380778 -26.21642 11.04034 80.8786 27.39587 -1.953821 -0 0 26.59109 -18.50859 5.190868 14.02575 3.159144 -15.2095 -1.318459 -90.07791 18.43188 25.90199 0 0 -11.16441 6.178208 6.334184 4.481656
1.46044 106.6471 78.48669 -0.8808965 -6.365799 -4.61692 6.937126 8.131035 -0.003895988 -0 7.367251 -0 -12.41313 -8.273474 -0.6675616 4.277128 -21.49617 -1.113601 -0 32.01374 -0 3.202501 -1.355224 13.22408 -2.142411 0.1746222 9.081309 -0.3741564 10.45784 -3.730255 1.550393 21.47088 2.843671 0.8738743 -20.56888 5.19643 -0.7337724 -26.5399 11.05393 80.8692 25.97526 -1.322657 -0 0 27.63214 -19.09464 4.804749 14.48515 3.03549 -14.7745 -1.285955 -90.36909 18.41382 26.4019 0 0 -10.3883 5.109882 5.864913 5.42678
